<?xml version="1.0" encoding="utf-8" ?>
<svg xmlns="http://www.w3.org/2000/svg" xmlns:xlink="http://www.w3.org/1999/xlink" width="1024" height="1023">
	<path fill="#2400EE" transform="scale(2 2)" d="M427.081 242.487C433.293 242.258 434.118 256.636 429.067 259.466C423.342 261.084 421.676 245.515 427.081 242.487Z"/>
	<path fill="#2400EE" transform="scale(2 2)" d="M427.572 270.041C434.669 269.668 432.757 285.842 429.067 287.019C427.562 286.998 425.65 287.072 424.947 285.396C423.65 282.303 422.422 271.818 427.572 270.041Z"/>
	<path fill="#D400F1" transform="scale(2 2)" d="M83.0446 195.261C92.2662 195.226 88.2034 210.177 85.2303 211.732L85.1259 211.742C78.4774 212.436 77.9301 198.219 83.0446 195.261Z"/>
	<path fill="#2400EE" transform="scale(2 2)" d="M427.081 297.071C434.1 297.441 431.707 307.557 431.709 313.26L431.703 370.929C431.703 376.683 431.867 382.472 431.703 388.222C430.979 389.448 430.329 390.155 429.067 390.847C424.422 391.736 424.578 387.656 424.501 384.405C424.341 377.639 424.478 370.839 424.477 364.069L424.457 308.374C424.438 303.736 423.008 300.108 427.081 297.071Z"/>
	<path fill="#D400F1" transform="scale(2 2)" d="M117.844 74.0502C122.951 73.9814 126.002 79.0237 113.832 83.3889C87.6291 92.7875 87.9785 115.87 87.9857 139.264L88.016 172.992C88.0212 176.929 89.9288 184.019 85.2303 185.492C78.8065 185.74 80.3356 180.662 80.3714 176.049L80.3817 134.135C80.3838 126.562 79.9447 118.562 81.3001 111.09C84.5757 93.0304 100.088 77.8998 117.844 74.0502Z"/>
	<defs>
		<linearGradient id="gradient_0" gradientUnits="userSpaceOnUse" x1="330.18405" y1="314.28741" x2="80.569023" y2="141.52048">
			<stop offset="0" stop-color="#8D0BF6"/>
			<stop offset="1" stop-color="#E201EF"/>
		</linearGradient>
	</defs>
	<path fill="url(#gradient_0)" transform="scale(2 2)" d="M325.537 91.1835C325.502 87.9973 323.979 77.9701 328.756 77.2861C335.233 76.3588 332.9 87.6808 332.903 91.1835C344.877 91.3776 376.173 89.5679 386.182 92.2636C407.934 98.1225 412.001 114.766 412.007 133.776L412.001 221.381C411.662 219.611 411.954 217.446 411.973 215.634L411.999 205.557C412.003 199.969 412.666 160.235 408.752 157.847C405.931 159.009 405.965 163.427 404.893 165.727C401.746 172.482 405.598 166.642 405.403 171.762L405.004 171.969C404.629 168.584 396.588 169.991 393.197 169.992L106.72 170.005L106.703 393.675C106.601 409.165 111.532 424.004 129.432 427.016C134.49 427.867 140.16 427.335 145.304 427.32L295.81 427.297C300.712 427.294 305.788 427.008 310.673 427.303C307.661 429.29 251.584 425.519 244.847 428.483C243.565 429.047 244.382 430.484 242.715 430.367L242.614 430.866L243.063 431.371L243.022 431.92C242.66 432.183 242.561 432.203 242.138 432.275L242.031 432.911C243.071 432.675 243.217 432.614 244.22 433.112C247.162 434.571 273.323 433.939 278.606 434.069C277.135 434.334 275.598 434.187 274.157 434.498C264.211 435.153 254.058 434.492 244.089 434.491L149.767 434.504C142.521 434.512 134.643 435.079 127.5 433.757C111.763 430.845 99.5893 416.259 99.5733 400.241L99.6559 129.715C99.6867 111.47 104.665 96.7196 125.274 91.9835C131.883 90.4647 139.908 91.1769 146.729 91.1776L178.496 91.1835C178.107 88.1704 177.921 72.2521 184.642 78.795C186.716 80.8139 185.847 88.1601 185.832 91.1835C201.331 90.8815 216.891 91.1809 232.398 91.1815L325.537 91.1835ZM185.832 98.0007L185.832 111.997C213.798 120.055 200.401 156.423 176.51 149.015C158.543 143.444 158.766 117.428 178.496 111.997L178.496 98.0007L134.521 98.0007C108.949 99.9659 106.687 116.126 106.721 137.462L106.72 162.897C110.129 163.166 113.614 162.916 117.035 162.905L405.004 162.897L405.01 140.629C405.003 113.687 401.763 97.9995 370.637 97.9897C365.656 97.9881 334.498 97.4455 332.943 98.5934L332.903 98.975L332.903 111.997C353.765 112.07 355.06 150.239 329.504 149.744C307.042 149.309 303.283 116.665 325.537 111.997L325.537 98.0007L185.832 98.0007ZM329.033 119.046C312.977 119.194 314.661 142.736 330.562 142.776C349.121 138.296 341.109 115.908 329.033 119.046ZM181.127 119.046C164.277 122.626 169.563 145.431 184.428 142.776C200.568 137.765 195.407 117.32 181.127 119.046Z"/>
	<path fill="#D400F1" transform="scale(2 2)" d="M208.53 272.027C212.325 271.847 214.66 275.096 212.098 278.453C210.024 281.17 206.851 283.442 204.45 285.934C200.073 290.476 176.396 315.897 172.606 316.316C169.707 314.916 160.931 304.345 158.223 301.343C154.131 297.122 151.012 293.424 158.223 291.03C162.179 293.785 169.213 303.397 173.387 307.41C177.683 302.002 183.099 297.235 187.923 292.289L200.377 279.54C202.93 276.94 205.317 273.843 208.53 272.027Z"/>
	<path fill="#D400F1" transform="scale(2 2)" d="M209.839 202.575C213.4 203.128 214.029 206.878 211.696 209.437C204.496 217.337 196.341 224.675 188.692 232.141C184.47 236.262 180.471 240.962 175.971 244.738C171.491 248.498 168.903 243.161 166.105 239.982C163.127 236.598 160.163 233.207 157.063 229.932C154.527 227.102 151.045 220.961 157.81 221.247C160.318 221.353 161.96 224.323 163.446 225.991L173.387 237.301C177.061 233.285 205.773 203.087 209.839 202.575Z"/>
	<path fill="#D400F1" transform="scale(2 2)" d="M239.491 297.071L341.839 297.058C346.418 297.045 351.087 296.821 355.652 297.098C360.849 297.413 361.481 304.125 354.513 304.194L252.984 304.185C250.53 304.201 228.117 306.23 235.635 298.181C236.677 297.065 238.082 297.163 239.491 297.071Z"/>
	<path fill="#D400F1" transform="scale(2 2)" d="M237.703 225.5L345.91 225.512C349.057 225.511 361.716 223.614 359.242 230.376C358.767 231.674 357.927 232.273 356.696 232.789L250.354 232.784C246.58 232.786 235.851 234.566 234.378 229.69C233.728 227.54 235.929 226.025 237.703 225.5Z"/>
	<path fill="#D400F1" transform="scale(2 2)" d="M317.149 368.496L343.809 368.511C347.685 368.496 352.047 367.97 355.869 368.426C360.702 369.001 360.661 375.337 356.107 375.817C353.406 376.101 350.487 375.871 347.761 375.866L277.375 375.849L250.378 375.859C246.397 375.86 241.816 376.322 237.898 375.752C233.644 375.134 233.75 369.078 237.905 368.589C240.568 368.275 243.489 368.5 246.178 368.5L317.149 368.496Z"/>
	<path fill="#2400EE" transform="scale(2 2)" d="M405.004 171.969L405.403 171.762C405.598 166.642 401.746 172.482 404.893 165.727C405.965 163.427 405.931 159.009 408.752 157.847C412.666 160.235 412.003 199.969 411.999 205.557L411.973 215.634C411.954 217.446 411.662 219.611 412.001 221.381L412.006 387.176C412.008 393.956 412.587 401.284 411.456 407.959C408.893 423.092 394.388 434.607 379.203 434.615L274.157 434.498C275.598 434.187 277.135 434.334 278.606 434.069C273.323 433.939 247.162 434.571 244.22 433.112C243.217 432.614 243.071 432.675 242.031 432.911L242.138 432.275C242.561 432.203 242.66 432.183 243.022 431.92L243.063 431.371L242.614 430.866L242.715 430.367C244.382 430.484 243.565 429.047 244.847 428.483C251.584 425.519 307.661 429.29 310.673 427.303L360.359 427.299C367.071 427.302 378.564 428.008 384.772 426.685C406.129 422.134 405.026 402.727 405.014 386.57L405.026 189.67C405.031 183.91 404.581 177.927 404.986 172.195L405.004 171.969Z"/>
	<path fill="#D400F1" transform="scale(2 2)" d="M170.736 342.034L187.124 342.015C211.987 341.97 211.69 348.594 211.755 371.487C211.795 385.45 212.649 400.218 193.976 400.249L177.688 400.274C153.9 400.303 152.8 394.672 152.76 372.156C152.731 356.35 150.808 343.204 170.736 342.034ZM167.893 349.494C162.976 350.374 160.664 352.942 160.107 357.733C159.671 361.484 159.57 383.417 160.289 386.604C162.259 395.331 173.744 393.236 180.347 393.23C185.856 393.225 191.418 393.38 196.919 393.202C206.891 391.589 204.475 378.235 204.483 371.07C204.506 349.516 206.509 349.484 182.675 349.47C177.81 349.467 172.737 349.176 167.893 349.494Z"/>
</svg>
